# xmcd
#
# Track frame offsets:
#	150
#	14513
#	29441
#	40000
#	50131
#	61738
#	73430
#	90055
#	101098
#	113214
#	130107
#	148618
#	160950
#	172361
#	187366
#
# Disc length: 2667 seconds
#
# Revision: 1
# Processed by: cddbd v1.5.1PL0 Copyright (c) Steve Scherf et al.
# Submitted via: EasyCDDAExtractor 6.2.0.3
#
DISCID=de0a690f
DTITLE=Glen Campbell - Simply the BEST (Double Album) - CD 1
DYEAR=2004
DGENRE=Country
TTITLE0=Rhinestone Cowboy
TTITLE1=Your Cheatin' Heart
TTITLE2=Together Again
TTITLE3=My Special Angel
TTITLE4=All I Have To Do Is Dream
TTITLE5=Take These Chains From My Heart
TTITLE6=You Win Again
TTITLE7=It's Only Make Believe
TTITLE8=My Prayer
TTITLE9=If You Could Read My Mind
TTITLE10=The Last Time I Saw Her
TTITLE11=Something 'bout You Baby I Like (with Rita Coolidge)
TTITLE12=Everything A Man Could Ever Need
TTITLE13=Don't Pull Your Love - Then You Can Tell Me Goodbye
TTITLE14=Bonapart's Retreat
EXTD=Disky  DO 901969\nDisky Communications Europe B.V., Hoorn, The Netherland
EXTD=s
EXTT0=
EXTT1=
EXTT2=
EXTT3=
EXTT4=
EXTT5=
EXTT6=
EXTT7=
EXTT8=
EXTT9=
EXTT10=
EXTT11=Glen Campbell and Rita Coolidge
EXTT12=
EXTT13=
EXTT14=
PLAYORDER=
